<svg height="512" viewBox="0 0 511 511" width="512" xmlns="http://www.w3.org/2000/svg">
    <path fill="rgb(152, 5, 56)"
        d="M438.5 49V0h-30v49h-82V0h-30v49h-82V0h-30v49h-82V0h-30v49H.5v462h510V49zm42 432h-450v-34h311.835L480.5 288.11zm-130-89.11V263h112.078zM480.5 233h-160v184h-290V175h450zm0-88h-450V79h42v33h30V79h82v33h30V79h82v33h30V79h82v33h30V79h42z" />
    <path fill="rgb(152, 5, 56)"
        d="M167.179 381.141l73.265-72.919c22.993-22.993 22.993-60.407 0-83.402-20.403-20.4-51.209-22.256-73.421-8.036-22.22-14.227-53.026-12.357-73.422 8.037-22.993 22.994-22.993 60.408.048 83.449zm-52.366-135.107c11.337-11.337 29.682-11.292 40.976-.001l11.241 11.242 11.225-11.241c11.292-11.292 29.637-11.337 40.976-.001 11.296 11.297 11.297 29.679.025 40.95l-52.122 51.876-52.32-51.851c-11.297-11.296-11.296-29.678-.001-40.974z" />
</svg>