<?xml version="1.0" encoding="UTF-8" standalone="no"?>
<!DOCTYPE svg PUBLIC "-//W3C//DTD SVG 1.1//EN" "http://www.w3.org/Graphics/SVG/1.1/DTD/svg11.dtd">
<svg version="1.1" xmlns="http://www.w3.org/2000/svg" xmlns:xlink="http://www.w3.org/1999/xlink" preserveAspectRatio="xMidYMid meet" viewBox="168.47301714508473 185.8414381977163 204.0013341308831 204.00133413088344" width="200" height="200"><defs><path d="M169.51 284.1C171.03 228.93 217.05 185.36 272.22 186.88C327.39 188.39 370.95 234.42 369.44 289.59C367.92 344.76 321.9 388.32 266.73 386.8C211.56 385.29 168 339.27 169.51 284.1Z" id="f5TNvgQwj"></path><linearGradient id="gradienta17PnxX6vW" gradientUnits="userSpaceOnUse" x1="330.53" y1="356.54" x2="175.27" y2="180.21"><stop style="stop-color: #ffa800;stop-opacity: 1" offset="0%"></stop><stop style="stop-color: #ff00c0;stop-opacity: 1" offset="54.712782646983115%"></stop><stop style="stop-color: #5d00ff;stop-opacity: 1" offset="100%"></stop></linearGradient><path d="M298.03 265.79C307.11 265.79 314.47 273.15 314.47 282.23C314.47 296.94 314.47 324.64 314.47 339.35C314.47 348.43 307.11 355.79 298.03 355.79C283.32 355.79 255.63 355.79 240.92 355.79C231.84 355.79 224.47 348.43 224.47 339.35C224.47 324.64 224.47 296.94 224.47 282.23C224.47 273.15 231.84 265.79 240.92 265.79C255.63 265.79 283.32 265.79 298.03 265.79Z" id="auO3QWULV"></path><path d="M294.74 235.26C294.74 235.26 286.32 245.44 269.47 265.79C286.32 245.44 294.74 235.26 294.74 235.26Z" id="bytTpc4Do"></path><path d="M307.37 231.05C307.37 236.86 302.89 241.58 297.37 241.58C291.85 241.58 287.37 236.86 287.37 231.05C287.37 225.24 291.85 220.53 297.37 220.53C302.89 220.53 307.37 225.24 307.37 231.05Z" id="b6lPGtDnB2"></path><path d="M244.21 235.26C244.21 235.26 252.63 245.44 269.47 265.79C252.63 245.44 244.21 235.26 244.21 235.26Z" id="aAAvpf0fO"></path><path d="M231.58 231.05C231.58 236.86 236.06 241.58 241.58 241.58C247.1 241.58 251.58 236.86 251.58 231.05C251.58 225.24 247.1 220.53 241.58 220.53C236.06 220.53 231.58 225.24 231.58 231.05Z" id="a2o9h84JRS"></path><path d="M299.11 304.04L275.12 318.96L261.46 305.65L239.83 317.46" id="akiT85BIk"></path><path d="M243.19 317.33C243.32 319.18 241.92 320.77 240.07 320.89C238.22 321 236.61 319.6 236.48 317.75C236.35 315.9 237.75 314.31 239.6 314.19C241.45 314.07 243.06 315.48 243.19 317.33Z" id="a2iINPm2Q"></path><path d="M302.47 303.83C302.6 305.68 301.2 307.27 299.35 307.39C297.5 307.51 295.89 306.1 295.76 304.25C295.63 302.4 297.03 300.81 298.88 300.69C300.73 300.57 302.34 301.98 302.47 303.83Z" id="aTJlwlrVa"></path></defs><g><g><use xlink:href="#f5TNvgQwj" opacity="1" fill="url(#gradienta17PnxX6vW)"></use></g><g><g><g><g><use xlink:href="#auO3QWULV" opacity="1" fill-opacity="0" stroke="#ffffff" stroke-width="9" stroke-opacity="1"></use></g></g><g><g><use xlink:href="#bytTpc4Do" opacity="1" fill-opacity="0" stroke="#ffffff" stroke-width="8" stroke-opacity="1"></use></g></g><g><use xlink:href="#b6lPGtDnB2" opacity="1" fill="#ffffff" fill-opacity="1"></use></g><g><g><use xlink:href="#aAAvpf0fO" opacity="1" fill-opacity="0" stroke="#ffffff" stroke-width="8" stroke-opacity="1"></use></g></g><g><use xlink:href="#a2o9h84JRS" opacity="1" fill="#ffffff" fill-opacity="1"></use></g></g><g><g><g><use xlink:href="#akiT85BIk" opacity="1" fill-opacity="0" stroke="#ffffff" stroke-width="7" stroke-opacity="1"></use></g></g><g><use xlink:href="#a2iINPm2Q" opacity="1" fill="#ffffff" fill-opacity="1"></use></g><g><use xlink:href="#aTJlwlrVa" opacity="1" fill="#ffffff" fill-opacity="1"></use></g></g></g></g></svg>