<svg xmlns="http://www.w3.org/2000/svg" width="128" height="128" viewBox="0 0 512 512">
    <path fill="rgb(152, 5, 56)"
        d="M462.27 232.513a152.859 152.859 0 00-71.846-49.278l10.466-10.467a24.139 24.139 0 005.864-24.839 29.145 29.145 0 00-48.254-11.392l-4.15 4.15-4.15-4.15a29.145 29.145 0 00-48.259 11.392 24.14 24.14 0 005.863 24.839l6.2 6.2a151.1 151.1 0 00-12.216 2.975 7.96 7.96 0 00-.868.309 152.1 152.1 0 00-95.327-73.552l24.722-31.786a8 8 0 00.085-9.714l-24-32A8 8 0 00200 32h-64a8 8 0 00-6.4 3.2l-24 32a8 8 0 00.085 9.712l24.723 31.788A152.045 152.045 0 0016 256c0 83.813 68.187 152 152 152a151.532 151.532 0 0043.083-6.229A151.524 151.524 0 00344 480c83.813 0 152-68.187 152-152a152.361 152.361 0 00-33.73-95.487zm-145.155-79.524a13.145 13.145 0 0121.766-5.139l9.807 9.807a8 8 0 0011.313 0l9.807-9.806a13.145 13.145 0 0121.767 5.138 8.229 8.229 0 01-2 8.466l-35.232 35.232-35.232-35.232a8.229 8.229 0 01-1.996-8.466zM320 256a151.945 151.945 0 00-2.712-28.529 104.009 104.009 0 11-62.815 153.461A151.936 151.936 0 00320 256zm7.972-63.059l15.076 15.076a120.242 120.242 0 00-29.587 3.913A152.02 152.02 0 00308 196.821a135.775 135.775 0 0119.972-3.88zM272 256a104.135 104.135 0 01-31.947 74.983c-.028-1-.053-1.989-.053-2.983a103.37 103.37 0 0131.954-75c.028 1 .046 2 .046 3zm-62.026 95.186A137.259 137.259 0 01208 328a135.8 135.8 0 0156.633-110.442 103.149 103.149 0 014.981 16.276A119.391 119.391 0 00224 328a121.573 121.573 0 00.951 15.019 103.669 103.669 0 01-14.977 8.167zM192 328a153.165 153.165 0 002.689 28.539 104.017 104.017 0 1162.781-153.5A151.77 151.77 0 00192 328zM138.234 80l7.408 22.223L128.357 80zm69.409 0l-17.285 22.223L197.766 80zM180.9 80L168 118.7 155.1 80zM160 64l8-10.667L176 64zm48 0h-12l-12-16h12zm-68-16h12l-12 16h-12zM32 256a136.035 136.035 0 01109.249-133.363l11.179 14.372a120 120 0 1031.144 0l11.179-14.372A136.035 136.035 0 01304 256c0 74.991-61.009 136-136 136S32 330.991 32 256zm312 208a135.561 135.561 0 01-117.6-67.674 151.512 151.512 0 0014.471-6.967 120 120 0 10123.114-179.686L377.5 196.16A136.053 136.053 0 01480 328c0 74.991-61.009 136-136 136z" />
    <path fill="rgb(152, 5, 56)"
        d="M376 409.345a7.96 7.96 0 003.2-.671 88 88 0 008.8-4.451 8 8 0 10-8-13.851 72.235 72.235 0 01-7.2 3.64 8 8 0 003.2 15.333zM403.2 382.4a8 8 0 0011.2-1.591A87.255 87.255 0 00432 328a8 8 0 00-16 0 71.369 71.369 0 01-14.391 43.2 8 8 0 001.591 11.2z" />
</svg>