<svg version="1.1" id="Layer_1" xmlns="http://www.w3.org/2000/svg" xmlns:xlink="http://www.w3.org/1999/xlink"
	 viewBox="-640 -212 1500 483" xml:space="preserve">
	<style>
		.st0 {
			fill: #4a8cff
		}

		.st1 {
			fill: #fff
		}
	</style>
	<path class="st0"
		d="M187.7-64.8h-.1c-52.4 0-94.8 42.5-94.8 94.8 0 52.4 42.4 94.9 94.8 94.9s94.9-42.4 94.9-94.8-42.4-94.9-94.8-94.9zm40.1 135.1c-22.3 22.2-58.3 22.1-80.5-.1-22.1-22.2-22.1-58.2 0-80.4 22.2-22.3 58.2-22.3 80.5-.1l.1.1c22.3 22.2 22.2 58.3-.1 80.5z" />
	<path class="st0"
		d="M73.8 87.5l-9.5-.5h-85.4L92.8-26.9l-.5-9.5c-.4-15.3-12.7-27.6-28-28l-9.5-.5H-87.5l.5 9.5c.7 15.1 12.8 27.3 28 28l9.5.5h85.4L-78 87l.5 9.5c.5 15.2 12.8 27.5 28 28l9.5.5h142.3l-.5-9.5c-1.3-15.7-12.4-27.1-28-28z" />
	<path class="st1"
		d="M227.8-10.4c-22.3-22.2-58.3-22.1-80.5.1-22.1 22.2-22.1 58.2 0 80.4 22.2 22.3 58.2 22.3 80.5.1 22.3-22.2 22.3-58.2.1-80.5l-.1-.1z" />
	<path class="st0"
		d="M681.1-64.8c-21.8 0-42.5 9.4-56.9 25.7-25.2-28.6-67.8-34.1-99.4-12.7-7.3-8.3-23.9-13-33.4-13V125l9.5-.5c15.8-1 27.4-12.2 28-28l.5-9.5V20.6l.5-9.5c0-6.6 1.7-13.1 4.7-19C545-26 568.2-32.2 586.4-21.7c5.7 3.3 10.5 8.1 13.8 13.8h-.1c3.1 5.9 4.7 12.4 4.7 19l.5 9.5V87l.5 9.5c.6 15.2 12.7 27.4 27.9 28l9.5.5V20.6l.5-9.5c0-6.7 1.6-13.2 4.7-19.1 10.5-18.1 33.8-24.3 51.9-13.7 5.7 3.3 10.5 8.1 13.8 13.8 3 5.9 4.6 12.4 4.6 19l.5 9.5V87l.5 9.5c.5 15.2 12.7 27.4 27.9 28l9.5.5V11.1c-.1-41.9-34.1-75.9-76-75.9zM454-37a94.833 94.833 0 00-67.1-27.8c-25.2 0-49.3 10-67.1 27.8-37 37.1-37 97.2.1 134.2s97.2 37 134.2-.1c37.1-37 37-97.1-.1-134.1zM427.1 70.3c-22.3 22.2-58.3 22.1-80.5-.1-22.1-22.2-22.1-58.2 0-80.4 22.2-22.3 58.2-22.3 80.5-.1l.1.1c22.3 22.2 22.2 58.3-.1 80.5z" />
	<path class="st1"
		d="M427.1-10.4c-22.3-22.2-58.3-22.1-80.5.1-22.1 22.2-22.1 58.2 0 80.4 22.2 22.3 58.2 22.3 80.5.1 22.3-22.2 22.3-58.2.1-80.5l-.1-.1z" />
	<defs>
		<circle id="SVGID_1_" cx="-395.9" cy="30.1" r="242" />
	</defs>
	<clipPath id="SVGID_2_">
		<use xlink:href="#SVGID_1_" overflow="visible" />
	</clipPath>
	<g clip-path="url(#SVGID_2_)">
		<path d="M-649.8-223.8h507.7v507.7h-507.7v-507.7z" fill="#e5e5e4" />
	</g>
	<defs>
		<circle id="SVGID_3_" cx="-395.9" cy="30.1" r="237.2" />
	</defs>
	<clipPath id="SVGID_4_">
		<use xlink:href="#SVGID_3_" overflow="visible" />
	</clipPath>
	<g clip-path="url(#SVGID_4_)">
		<path class="st1" d="M-645-219h498.2v498.2H-645V-219z" />
	</g>
	<g>
		<defs>
			<circle id="SVGID_5_" cx="-395.9" cy="30.1" r="218.2" />
		</defs>
		<clipPath id="SVGID_6_">
			<use xlink:href="#SVGID_5_" overflow="visible" />
		</clipPath>
		<g clip-path="url(#SVGID_6_)">
			<path class="st0" d="M-626-200h460.2v460.2H-626V-200z" />
		</g>
	</g>
	<g>
		<defs>
			<path id="SVGID_7_"
				d="M-329.5 1.8l61.7-45.1c5.4-4.4 9.5-3.4 9.5 4.7V98.9c0 9.1-5.1 8.1-9.5 4.7l-61.7-45.1V1.8zm-208.8-40V64.2c.1 23.2 19 41.9 42.2 41.8h149.5c4.2 0 7.6-3.4 7.7-7.6V-4.1c-.1-23.2-19-41.9-42.2-41.8h-149.5c-4.2.1-7.6 3.4-7.7 7.7z" />
		</defs>
		<clipPath id="SVGID_8_">
			<use xlink:href="#SVGID_7_" overflow="visible" />
		</clipPath>
		<g clip-path="url(#SVGID_8_)">
			<path class="st1" d="M-550.1-57.7h303.7v175.5h-303.7V-57.7z" />
		</g>
	</g>
</svg>