<svg xmlns="http://www.w3.org/2000/svg" viewBox="0 0 511.998 511.998">
    <path
        d="M511.302 381.329l-.003-.006c-2.754-8.389-18.959-50.328-69.417-59.059 22.592-45.957-1.821-83.713-6.99-90.871l-.004-.005a9.996 9.996 0 00-7.897-4.359c-2.15-.078-52.397-1.33-78.289 47.769-4.026-3.913-8.133-7.258-12.266-10.108L459.842 86.129c3.14-4.543 2.002-10.771-2.541-13.911-4.545-3.141-10.77-2.002-13.911 2.541l-124.742 180.49c-13.485-5.225-26.391-6.242-36.755-5.692 4.881-11.206 6.115-19.888 6.227-20.742a9.998 9.998 0 00-3.048-8.655l-.005-.005c-1.765-1.754-5.693-5.399-11.518-9.389 20.88-40.875 48.745-77.295 82.928-108.356 4.087-3.714 4.39-10.038.675-14.125-3.715-4.088-10.037-4.391-14.125-.676-35.867 32.591-65.127 70.792-87.084 113.66-15.185-6.19-35.493-9.66-59.537-2.229-.73-51.206-39.622-73.765-47.477-77.797l-.006-.003a10 10 0 00-9.016-.298c-.274.127-1.411.668-3.162 1.657L97.578 83.432c-3.905-3.905-10.234-3.905-14.142 0-3.905 3.905-3.905 10.236 0 14.141l36.998 36.999c-13.141 12.064-28.154 32.742-28.603 64.472a98.234 98.234 0 00-4.916-1.38C43.789 149.643 20.04 87.657 20.04 23.037c0-.932.006-1.874.017-2.824 83.01 3.39 159.575 46.011 206.287 115.346 3.086 4.581 9.302 5.792 13.88 2.706 4.581-3.086 5.792-9.299 2.707-13.88C190.692 46.846 103.763.347 10.398 0h-.038A10.002 10.002 0 00.372 9.525a287.496 287.496 0 00-.329 13.513c0 62.596 20.711 122.892 58.686 172.011-30.639 2.185-50.843 20.411-55.568 25.106l-.005.004a10.002 10.002 0 00-3.07 8.482c.259 2.131 6.888 51.973 59.447 69.866-29.586 41.882-11.359 83.038-7.372 90.923l.003.006a10.005 10.005 0 007.118 5.541c.635.124 5.561 1.036 13.047 1.036 17.376 0 48.536-4.916 71.78-35.998 33.26 44.478 82.723 35.374 84.827 34.962a9.975 9.975 0 005.506-3.144c-6.838 15.906-7.494 30.046-7.509 34.597v.008a10 10 0 003.828 8.167c1.209.947 21.987 16.856 51.962 16.854 11.926-.001 25.312-2.521 39.493-9.503 9.446 54.727 57.65 69.069 59.715 69.658a10.006 10.006 0 008.859-1.707l.006-.004c7.13-5.216 42.046-33.621 34.701-84.36 4.718.679 9.232.989 13.566.989 45.657-.003 69.929-34.511 71.04-36.13a10.007 10.007 0 001.199-9.073zm-150.247-84.486c.02-.062.03-.125.049-.188.021-.063.053-.121.073-.184a75.942 75.942 0 014.668-11.294c15.867-31.147 44.141-36.908 55.52-37.947 6.275 10.576 17.683 36.563 2.041 67.27a77.266 77.266 0 01-3.745 6.521c-26.465 1.706-44.952 14.744-55.354 24.673-4.837-10.635-9.72-28.216-3.252-48.851zm-90.064-25.725c12.001-2.699 40.244-5.516 64.608 18.847a77.364 77.364 0 015.049 5.581c-6.555 25.689.136 47.305 6.363 60.269-11.609 1.313-29.835.523-47.46-12.003-.056-.04-.115-.071-.171-.109-.042-.031-.078-.07-.121-.1a75.803 75.803 0 01-9.334-7.954c-24.718-24.714-21.463-53.385-18.934-64.531zm-81.28-47.849c.063-.031.129-.05.191-.082a75.967 75.967 0 0111.282-4.682c32.773-10.647 56.653 4.678 66.12 12.53-2.819 11.113-12.948 38.118-46.157 48.907a77.77 77.77 0 01-7.249 1.96c-19.901-17.499-42.184-21.36-56.564-21.703 4.121-10.937 13.114-26.853 32.214-36.834.057-.03.107-.065.163-.096zm-168.792 7.77c9.465-7.851 33.351-23.181 66.123-12.533a77.322 77.322 0 017.039 2.685c5.82 25.85 21.568 42.064 32.999 50.789-9.761 6.427-26.394 14.02-47.716 10.868-.068-.01-.134-.011-.202-.02-.052-.009-.101-.027-.154-.035a75.663 75.663 0 01-11.928-2.851c-33.242-10.799-43.354-37.823-46.161-48.903zM135.37 336.253c-.038.076-.065.155-.101.232-.029.055-.067.104-.095.16a75.782 75.782 0 01-6.4 10.47c-20.547 28.281-49.379 29.541-60.776 28.791-4.542-11.428-11.742-38.881 8.515-66.762a77.385 77.385 0 014.797-5.942c2.757.255 5.454.391 8.075.391 22.439 0 39.804-8.76 50.394-16.076 3.095 11.271 5.176 29.435-4.409 48.736zm2.556-81.154c-9.128-7.298-21.486-20.77-25.077-42.019-.011-.066-.03-.128-.043-.193-.009-.065-.007-.129-.018-.194a75.651 75.651 0 01-.968-12.183c0-31.096 17.864-48.74 28.616-56.548.483-.285.948-.61 1.387-.983a66.05 66.05 0 012.244-1.483c10.392 6.576 32.353 24.553 32.353 59.015 0 2.532-.136 5.037-.375 7.5-22.79 13.519-33.35 33.518-38.119 47.088zm82.301 120.785c-11.387.71-40.334-.621-60.783-28.768a77.893 77.893 0 01-4.138-6.346c10.509-24.345 7.294-46.746 3.175-60.534 11.62.537 29.422 4.148 44.768 19.05.149.169.284.347.446.507a75.744 75.744 0 018.01 9.351c20.243 27.863 13.064 55.299 8.522 66.74zm8.459-77.373c7.86-2.677 14.689-6.09 20.63-9.957.307 17.283 5.56 39.752 25.456 60.209-17.574 9.253-28.704 21.666-35.751 33.915 5.838-15.155 14.21-49.412-10.335-84.167zm96.528 118.308c-.056.042-.104.089-.159.131-.064.045-.13.084-.193.13a75.708 75.708 0 01-10.455 6.424c-31.145 15.875-57.405 3.916-67.223-1.933 1.141-12.245 7.187-39.975 37.89-55.622a77.599 77.599 0 016.973-3.118c16.631 10.507 33.379 13.4 46.734 13.4a94.1 94.1 0 0012.516-.84c-2.339 11.447-8.723 28.537-26.083 41.428zm57.621 73.832c-10.465-4.537-35.656-18.863-41.101-53.226a77.438 77.438 0 01-.807-7.53c20.414-16.923 27.718-38.341 30.306-52.497 10.11 5.754 24.334 17.051 31.244 37.294.056.219.096.439.168.656a75.73 75.73 0 012.892 11.968c5.389 34.011-13.459 55.201-22.702 63.335zm44.371-85.071a77.615 77.615 0 01-7.358-1.546c-9.792-24.625-27.888-38.177-40.544-45.007 8.635-7.875 23.875-17.979 45.428-18.203.066-.001.129-.01.194-.012.068.001.133.014.201.014 3.969-.015 8.077.3 12.179.949 34.034 5.388 48.357 29.884 53.228 41.178-7.556 8.622-28.835 28.083-63.328 22.627z" />
    <path
        d="M385.728 65.842c-3.32-4.413-9.588-5.298-14.003-1.977l-.575.435c-4.407 3.328-5.282 9.598-1.954 14.005a9.982 9.982 0 007.986 3.975 9.952 9.952 0 006.019-2.021l.55-.415c4.412-3.321 5.298-9.589 1.977-14.002zM510.25 9.084a9.992 9.992 0 00-4.356-7.358 9.993 9.993 0 00-8.451-1.301 397.528 397.528 0 00-95.782 42.984c-4.696 2.906-6.148 9.068-3.242 13.765 2.906 4.696 9.068 6.148 13.765 3.242a377.738 377.738 0 0179.103-37.079c.465 7.718.7 15.462.7 23.138 0 55.665-11.778 109.29-35.008 159.383-2.323 5.01-.145 10.955 4.865 13.278a9.968 9.968 0 004.2.93c3.774 0 7.386-2.147 9.078-5.795 24.461-52.749 36.863-109.204 36.863-167.797 0-12.415-.584-24.995-1.735-37.39zM71.078 56.936a10.071 10.071 0 00-7.068-2.93c-2.63 0-5.21 1.07-7.069 2.93s-2.93 4.44-2.93 7.069 1.069 5.21 2.93 7.069a10.077 10.077 0 007.069 2.93c2.63 0 5.21-1.07 7.068-2.93 1.86-1.86 2.931-4.44 2.931-7.069s-1.071-5.209-2.931-7.069z" />
</svg>