<svg height="512" viewBox="0 0 516.282 516.282" width="512" xmlns="http://www.w3.org/2000/svg">
    <path
        d="M394.348 77.049C341.614-10.275 223.079-25.759 149.661 42.866l-20.973-3.279L3.141 84.426v431.855l128.453-45.876 255.493 39.921 126.054-36.016V43.11zm-23.207 400.422l-226-35.313V270.081c25.119 37.306 62.741 83.739 113 134.164 49.835-50 87.555-96.373 113-134.164zm-113-447.474c71.131 0 129 57.869 129 129 0 55.213-85.053 156.183-129 202.468-43.947-46.285-129-147.255-129-202.468 0-71.131 57.869-129 129-129zm-225 75.57l91.361-32.629c-16.039 24.821-25.361 54.371-25.361 86.058 0 16.747 5.366 36.552 16 59.259v226.17l-82 29.286zm450 346.115l-82 23.428V218.256c10.634-22.708 16-42.512 16-59.259 0-19.14-3.4-37.499-9.627-54.509l75.627-21.605z" />
    <path
        d="M181.249 188.619l77.056 75.572 76.775-75.619c24.099-23.848 24.101-62.517 0-86.367-21.436-21.213-53.796-22.952-76.939-7.963-23.145-14.99-55.505-13.248-76.939 7.963-24.018 23.767-24.2 62.42.047 86.414zm21.054-65.09c12.329-12.2 32.34-12.156 44.624-.001l11.214 11.098 11.213-11.097c12.283-12.154 32.293-12.202 44.625 0a30.645 30.645 0 01.025 43.694l-55.744 54.903-55.957-54.879a30.641 30.641 0 010-43.718z" />
</svg>